<?xml version="1.0" encoding="utf-8"?>
<!-- Generator: Adobe Illustrator 26.2.1, SVG Export Plug-In . SVG Version: 6.00 Build 0)  -->
<svg version="1.1" xmlns="http://www.w3.org/2000/svg" xmlns:xlink="http://www.w3.org/1999/xlink" x="0px" y="0px"
	 viewBox="0 0 210 253" style="enable-background:new 0 0 210 253;" xml:space="preserve">
<style type="text/css">
	.st0{fill:#2F4550;}
	.st1{fill:#586F7C;}
	.st2{fill:#FFFFFF;}
	.st3{fill:#B8DBD9;}
</style>
<g id="Layer_1">
</g>
<g id="Layer_2">
	<g id="LAS">
		<path id="Path_6_00000030480077533537686140000012352906712082365109_" class="st3" d="M30,30.6v202.2c0,0,96,1.1,119.3,0
			c2.8-35.9-5.9-28.7-36.1-28.7H59.3c0,0,0-107,0-137.9S30,30.6,30,30.6z"/>
		<path id="Path_6" class="st0" d="M0-0.4v202.2c0,0,96,1.1,119.3,0c2.8-35.9-5.9-28.7-36.1-28.7H29.3c0,0,0-107,0-137.9
			S0-0.4,0-0.4z"/>
		<g transform="matrix(1, 0, 0, 1, 286, 129.21)">
			<path id="Path_3-2" class="st0" d="M-152.9-96.6H-76v53.8c0,0-16.7-3.9-24-11.2s-5.3-17.8-5.3-17.8H-124v66.1h48v115h-77.1
				l0.2-73c0,0,25.1,5.2,25.1,23.8s0,27.6,0,27.6h22.6V18.8h-47.7V-96.6z"/>
		</g>
		<g id="Group_1" transform="translate(0 -64)">
			<g transform="matrix(1, 0, 0, 1, 286, 193.21)">
				<path id="Path_4-2" class="st1" d="M-144.1,124.2V-81.6h-27.1l-72,125.8l-48,80h40l48-80h29.1v80H-144.1z"/>
			</g>
			<path id="Path_5" class="st2" d="M111.7,213.4v-45.9l-21.6,45.9H111.7z"/>
		</g>
	</g>
</g>
</svg>
