<?xml version="1.0" encoding="utf-8"?>
<!-- Generator: Adobe Illustrator 26.2.1, SVG Export Plug-In . SVG Version: 6.00 Build 0)  -->
<svg version="1.1" id="Layer_1" xmlns="http://www.w3.org/2000/svg" xmlns:xlink="http://www.w3.org/1999/xlink" x="0px" y="0px"
	 viewBox="0 0 1366 768" style="enable-background:new 0 0 1366 768;" xml:space="preserve">
<style type="text/css">
	.st0{fill:#586F7C;}
	.st1{fill:#FFFFFF;}
</style>
<g>
	<rect class="st0" width="1366" height="768"/>
</g>
<g>
	<path class="st1" d="M682.5,378c30.6,0,59.3,11.9,81,33.5c21.6,21.6,33.5,50.4,33.5,81s-11.9,59.3-33.5,81
		c-21.6,21.6-50.4,33.5-81,33.5s-59.3-11.9-81-33.5c-21.6-21.6-33.5-50.4-33.5-81s11.9-59.3,33.5-81
		C623.2,389.9,651.9,378,682.5,378 M682.5,353c-77,0-139.5,62.5-139.5,139.5S605.5,632,682.5,632S822,569.5,822,492.5
		S759.5,353,682.5,353L682.5,353z"/>
</g>
<g>
	<path class="st1" d="M754.9,487.4c3.8,2.2,3.8,7.7,0,9.8l-53.1,30.7l-53.1,30.7c-3.8,2.2-8.5-0.5-8.5-4.9v-61.4v-61.4
		c0-4.4,4.7-7.1,8.5-4.9l53.1,30.7L754.9,487.4z"/>
</g>
</svg>
