<?xml version="1.0" encoding="utf-8"?>
<!-- Generator: Adobe Illustrator 26.2.1, SVG Export Plug-In . SVG Version: 6.00 Build 0)  -->
<svg version="1.1" xmlns="http://www.w3.org/2000/svg" xmlns:xlink="http://www.w3.org/1999/xlink" x="0px" y="0px"
	 viewBox="0 0 1366 768" style="enable-background:new 0 0 1366 768;" xml:space="preserve">
<style type="text/css">
	.st0{fill:#586F7C;}
	.st1{fill:#FFFFFF;}
	.st2{fill:#E2D9C9;}
	.st3{fill:#2F4550;}
	.st4{display:none;}
	.st5{display:inline;fill:#2F4550;}
</style>
<g id="Layer_1">
</g>
<g id="Layer_2">
	<g>
		<rect class="st2" width="1366" height="768"/>
	</g>
	<g>
		<path class="st3" d="M801.2,509.4c13.3,7.7,13.3,26.8,0,34.5l-82.7,47.7l-82.7,47.7c-13.3,7.7-29.8-1.9-29.8-17.2v-95.5v-95.5
			c0-15.3,16.6-24.9,29.8-17.2l82.7,47.7L801.2,509.4z"/>
	</g>
	<g>
		<path class="st3" d="M145.7,193H69.3C62,193,56,187,56,179.7v-76.3C56,96,62,90,69.3,90h76.3c7.4,0,13.3,6,13.3,13.3v76.3
			C159,187,153,193,145.7,193z"/>
	</g>
	<g>
		<path class="st3" d="M145.7,358H69.3C62,358,56,352,56,344.7v-76.3c0-7.4,6-13.3,13.3-13.3h76.3c7.4,0,13.3,6,13.3,13.3v76.3
			C159,352,153,358,145.7,358z"/>
	</g>
	<g>
		<path class="st3" d="M145.7,527H69.3C62,527,56,521,56,513.7v-76.3c0-7.4,6-13.3,13.3-13.3h76.3c7.4,0,13.3,6,13.3,13.3v76.3
			C159,521,153,527,145.7,527z"/>
	</g>
	<g>
		<path class="st3" d="M145.7,687H69.3C62,687,56,681,56,673.7v-76.3c0-7.4,6-13.3,13.3-13.3h76.3c7.4,0,13.3,6,13.3,13.3v76.3
			C159,681,153,687,145.7,687z"/>
	</g>
	<g>
		<path class="st3" d="M1297.7,193h-76.3c-7.4,0-13.3-6-13.3-13.3v-76.3c0-7.4,6-13.3,13.3-13.3h76.3c7.4,0,13.3,6,13.3,13.3v76.3
			C1311,187,1305,193,1297.7,193z"/>
	</g>
	<g>
		<path class="st3" d="M1297.7,358h-76.3c-7.4,0-13.3-6-13.3-13.3v-76.3c0-7.4,6-13.3,13.3-13.3h76.3c7.4,0,13.3,6,13.3,13.3v76.3
			C1311,352,1305,358,1297.7,358z"/>
	</g>
	<g>
		<path class="st3" d="M1297.7,527h-76.3c-7.4,0-13.3-6-13.3-13.3v-76.3c0-7.4,6-13.3,13.3-13.3h76.3c7.4,0,13.3,6,13.3,13.3v76.3
			C1311,521,1305,527,1297.7,527z"/>
	</g>
	<g>
		<path class="st3" d="M1297.7,687h-76.3c-7.4,0-13.3-6-13.3-13.3v-76.3c0-7.4,6-13.3,13.3-13.3h76.3c7.4,0,13.3,6,13.3,13.3v76.3
			C1311,681,1305,687,1297.7,687z"/>
	</g>
	<g class="st4">
		<path class="st5" d="M441.9,222.5v-4.2c9.3-1.3,10.6-2.6,8.6-8.5c-2.1-5.8-4.8-13.1-8-21.5h-32.1c-2.5,6.7-4.5,12.4-6.4,18.2
			c-3.2,8.9-2,10.6,9.3,11.8v4.2h-33v-4.2c9.7-1.5,11.8-2.5,17.1-15.5l31.4-76.4l5.2-1.3c9.6,25.9,19.2,52,29.1,77.7
			c4.8,12.9,6.9,14.5,16.6,15.5v4.2H441.9z M427.2,145.2h-0.3c-4.8,12.1-9.5,24.6-14,36.4h27.4L427.2,145.2z"/>
		<path class="st5" d="M484.7,222.5v-3.9c9.3-1.1,10.6-1.9,10.6-11.7v-68.7c0-9.9-1-10.2-10.2-11.1v-3.6c8-0.9,17.6-3.4,23-5.1v88.5
			c0,9.9,1.3,10.8,11,11.7v3.9H484.7z"/>
		<path class="st5" d="M560.7,159.3c2.9-1.7,5.8-2.4,7.7-2.4c16.8,0,26.7,13.1,26.7,27.8c0,21.7-17.9,35.8-37.1,39.4
			c-4.4-0.1-8.4-1.4-10.5-2.4v19.3c0,10.7,1.1,11.6,12.6,12.6v4h-36.4v-4c9.6-0.9,10.9-1.9,10.9-11.4v-66.1c0-9.2-0.8-9.6-9.7-10.8
			v-3.6c6.3-1,15.1-3.6,22.6-6.4V167L560.7,159.3z M547.5,211.3c3.3,3.2,9,5.7,13.9,5.7c12.4,0,20.1-11.1,20.1-26.4
			c0-16-9.4-24.5-19.8-24.5c-4.5,0-10.3,3.1-14.2,6V211.3z"/>
		<path class="st5" d="M645.6,222.5v-3.9c8.4-0.9,9.6-1.9,9.6-11.4v-23.7c0-12.1-5-17.8-14.2-17.8c-5.4,0-10.9,2.6-15,7.1v34.4
			c0,9.3,0.9,10.5,9.4,11.4v3.9h-32.4v-3.9c8.9-0.9,10.2-1.8,10.2-11.4v-69.6c0-9.2-0.4-9.7-9.9-10.6v-3.5c7-1,16.6-3.2,22.7-5.1
			v49.1c5.6-5.4,13.4-10.6,21.3-10.6c12.2,0,20.8,7.4,20.8,25.3v24.9c0,9.8,1.1,10.5,9.6,11.4v3.9H645.6z"/>
		<path class="st5" d="M733.1,224.2c-2.8,0-6-1.3-7.6-2.9c-2-1.9-2.9-3.9-3.6-6.2c-6,3.8-13,9.1-17.2,9.1c-11.1,0-18.4-8.8-18.4-18
			c0-7.3,4-11.7,12.1-14.3c9.5-3,19.8-6.8,23-9.5v-2.6c0-10.5-4.8-16.1-11.9-16.1c-2.6,0-4.8,1-6.3,2.6c-1.9,1.9-3.2,5.2-4.5,9.9
			c-0.9,2.6-2.5,3.6-4.8,3.6c-2.9,0-6.8-3-6.8-6.5c0-2.2,1.9-4,4.8-6c4.3-3.1,14.4-8.7,22.7-10.3c4.7,0,9,1.1,12.4,3.7
			c5.5,4.6,7.1,10.7,7.1,18.5v26.3c0,6.5,2.6,8.7,5.3,8.7c1.7,0,3.7-0.7,5.3-1.6l1.5,3.9L733.1,224.2z M721.4,187.4
			c-3,1.5-9,4.3-12.1,5.7c-5.8,2.5-9,5.4-9,10.8c0,7.7,5.8,11.1,10.2,11.1c3.5,0,8.3-2.2,10.9-4.8V187.4z"/>
		<path class="st5" d="M781.8,158.6c2.8-1.2,5-1.7,6.7-1.7c16.3,0,29.9,13.5,29.9,30.7c0,21.3-17.7,36.5-37.9,36.5
			c-6.4,0-14.1-1.4-22.7-5.2v-80.9c0-9.2-0.5-10.2-9.8-11.1v-3.5c7-0.9,16.8-3.1,22.7-5.1v44.9L781.8,158.6z M770.7,205.2
			c0,2.2,0.3,3.7,0.9,5c1,3,5.4,8.1,12.8,8.1c11.8,0,19.6-9.7,19.6-26.8c0-16.9-10.5-26.2-22.3-26.2c-4,0-8.2,1.2-11,2.5V205.2z"/>
		<path class="st5" d="M883.5,209.5c-9.6,12.1-20.3,14.7-25.1,14.7c-18.3,0-29.1-14.7-29.1-31c0-9.7,3.5-18.5,9.5-25
			c6.4-7,14.5-11.2,22.4-11.2h0.1c12.7,0,22.8,10.9,22.8,22.5c0,2.8-0.8,4.1-3.5,4.7c-2.7,0.4-21.3,1.9-38.5,2.5
			c0.3,18.9,11.4,26.9,21.7,26.9c6.1,0,11.8-2.3,17.2-7.3L883.5,209.5z M857.7,162.4c-6.4,0-12.8,5.7-14.9,17.9
			c7.9,0,15.8,0,24.1-0.3c2.6-0.1,3.5-0.9,3.5-2.8C870.4,169.5,865.6,162.4,857.7,162.4L857.7,162.4z"/>
		<path class="st5" d="M922.7,222.2c-2.7,1.5-5,2-6.3,2c-9.9,0-15.4-5.6-15.4-17.4v-42h-10.1l-0.7-1.7l4.1-4.4h6.7V148l10.9-10.2
			l2,0.4v20.4h16.6c1.5,1.6,1,4.8-1,6.1h-15.6v36.9c0,11.8,5.1,13.8,8.8,13.8c3.5,0,6.8-1.4,9-2.5l1.3,4L922.7,222.2z"/>
		<path class="st5" d="M978.2,176.4c-2.9-8.6-8.1-14.7-15.4-14.7c-5.4,0-9.2,4-9.2,9.7c0,6,5.6,9.5,12.3,12.1
			c11.3,4.5,19,9.8,19,20.1c0,13.7-12.6,20.5-24.9,20.5c-7.7,0-14.7-2.7-17.2-4.8c-1-1.9-2.4-12.2-2.6-18l4.1-0.6
			c2.8,9.8,9.5,18.5,18.3,18.5c5.4,0,10.2-4.1,10.2-9.9c0-6-3.9-9.3-11.5-12.7c-8.6-3.9-18.9-8.9-18.9-20.5c0-10.4,9-19.2,23-19.2
			c6.4,0,10.4,1.3,13.4,2.6c1.3,3.2,3.1,12.2,3.4,15.7L978.2,176.4z"/>
	</g>
</g>
</svg>
