<?xml version="1.0" encoding="utf-8"?>
<!-- Generator: Adobe Illustrator 26.2.1, SVG Export Plug-In . SVG Version: 6.00 Build 0)  -->
<svg version="1.1" xmlns="http://www.w3.org/2000/svg" xmlns:xlink="http://www.w3.org/1999/xlink" x="0px" y="0px"
	 viewBox="0 0 1366 768" style="enable-background:new 0 0 1366 768;" xml:space="preserve">
<style type="text/css">
	.st0{fill:#586F7C;}
	.st1{fill:#FFFFFF;}
	.st2{fill:#8A989F;}
	.st3{fill:#2F4550;}
</style>
<g id="Layer_1">
</g>
<g id="Layer_2">
	<g>
		<rect class="st2" width="1366" height="768"/>
	</g>
	<g>
		<path class="st3" d="M801.2,509.4c13.3,7.7,13.3,26.8,0,34.5l-82.7,47.7l-82.7,47.7c-13.3,7.7-29.8-1.9-29.8-17.2v-95.5v-95.5
			c0-15.3,16.6-24.9,29.8-17.2l82.7,47.7L801.2,509.4z"/>
	</g>
	<g>
		<path class="st3" d="M145.7,193H69.3C62,193,56,187,56,179.7v-76.3C56,96,62,90,69.3,90h76.3c7.4,0,13.3,6,13.3,13.3v76.3
			C159,187,153,193,145.7,193z"/>
	</g>
	<g>
		<path class="st3" d="M145.7,358H69.3C62,358,56,352,56,344.7v-76.3c0-7.4,6-13.3,13.3-13.3h76.3c7.4,0,13.3,6,13.3,13.3v76.3
			C159,352,153,358,145.7,358z"/>
	</g>
	<g>
		<path class="st3" d="M145.7,527H69.3C62,527,56,521,56,513.7v-76.3c0-7.4,6-13.3,13.3-13.3h76.3c7.4,0,13.3,6,13.3,13.3v76.3
			C159,521,153,527,145.7,527z"/>
	</g>
	<g>
		<path class="st3" d="M145.7,687H69.3C62,687,56,681,56,673.7v-76.3c0-7.4,6-13.3,13.3-13.3h76.3c7.4,0,13.3,6,13.3,13.3v76.3
			C159,681,153,687,145.7,687z"/>
	</g>
	<g>
		<path class="st3" d="M1297.7,193h-76.3c-7.4,0-13.3-6-13.3-13.3v-76.3c0-7.4,6-13.3,13.3-13.3h76.3c7.4,0,13.3,6,13.3,13.3v76.3
			C1311,187,1305,193,1297.7,193z"/>
	</g>
	<g>
		<path class="st3" d="M1297.7,358h-76.3c-7.4,0-13.3-6-13.3-13.3v-76.3c0-7.4,6-13.3,13.3-13.3h76.3c7.4,0,13.3,6,13.3,13.3v76.3
			C1311,352,1305,358,1297.7,358z"/>
	</g>
	<g>
		<path class="st3" d="M1297.7,527h-76.3c-7.4,0-13.3-6-13.3-13.3v-76.3c0-7.4,6-13.3,13.3-13.3h76.3c7.4,0,13.3,6,13.3,13.3v76.3
			C1311,521,1305,527,1297.7,527z"/>
	</g>
	<g>
		<path class="st3" d="M1297.7,687h-76.3c-7.4,0-13.3-6-13.3-13.3v-76.3c0-7.4,6-13.3,13.3-13.3h76.3c7.4,0,13.3,6,13.3,13.3v76.3
			C1311,681,1305,687,1297.7,687z"/>
	</g>
</g>
</svg>
